<svg id="Capa_1" enable-background="new 0 0 512.135 512.135" height="512" viewBox="0 0 512.135 512.135" width="512" xmlns="http://www.w3.org/2000/svg"><path d="m411.678 61.287-150-60c-1.824-.736-3.71-1.029-5.566-1.029v149.96c1.86 0 3.75-.337 5.566-1.069l150-60c5.698-2.285 9.434-7.793 9.434-13.931s-3.736-11.646-9.434-13.931z" fill="#4bb9ec"/><path d="m271.111 15.218v181c0 8.399-6.599 15-15 15s-15-6.601-15-15v-181c0-8.401 6.599-15 15-15 8.401 0 15 6.599 15 15z" fill="#725d57"/><path d="m271.111 15.218v181c0 8.399-6.599 15-15 15v-211c8.401 0 15 6.599 15 15z" fill="#53433f"/><path d="m301.111 226.218v32.399h-90v-32.399c0-24.901 20.099-45 45-45s45 20.099 45 45z" fill="#ff641a"/><path d="m301.111 258.616h-45v-77.399c24.901 0 45 20.099 45 45z" fill="#f03800"/><path d="m421.111 407.218c0 23.399-5.099 46.5-14.399 67.5-8.101 2.699-15.901 6.299-23.101 11.1-22.5 14.7-51.301 14.7-73.5 0-16.5-10.8-35.099-16.201-54-16.201-17.999 0-36.599 5.402-52.5 16.201-21.301 14.099-52.5 13.799-73.5 0-7.8-5.099-16.199-9-24.901-11.7-9.3-21-14.099-43.801-14.099-66.899 0-90.901 74.099-166 165-166s165 75.098 165 165.999z" fill="#ff9100"/><path d="m421.111 407.218c0 23.399-5.099 46.5-14.399 67.5-8.101 2.699-15.901 6.299-23.101 11.1-22.5 14.7-51.301 14.7-73.5 0-16.5-10.8-35.099-16.201-54-16.201v-228.399c90.901 0 165 75.099 165 166z" fill="#ff641a"/><path d="m510.912 496.617c-3.001 7.5-12.001 11.4-19.501 8.101-5.7-2.401-12.4-5.4-17.8-9-22.5-14.702-51-14.702-73.5 0-16.199 10.8-34.799 16.199-53.399 16.199-18.301 0-36.901-5.4-53.101-16.199-11.4-7.5-24.3-11.102-37.5-11.102-12.299 0-24.901 3.602-36 11.102-32.401 21.599-74.099 21.599-106.5 0-22.5-14.702-52-14.702-74.5 0-5.7 3.898-11.999 7.2-18.6 9.598-7.8 3.301-16.5-.599-19.499-8.399-3.001-7.8.899-16.5 8.699-19.501 4.499-1.8 8.699-3.9 12.9-6.599 32.401-21.601 75.099-21.601 107.5 0 22.5 14.7 51 14.7 73.5 0 15.901-10.8 34.501-16.201 52.5-16.201 18.9 0 37.5 5.402 54 16.201 22.5 14.7 51 14.7 73.5 0 32.401-21.601 75.099-21.601 107.5 0 3.9 2.401 7.8 4.499 11.7 6.299 7.801 3.001 11.4 11.701 8.101 19.501z" fill="#a8ebfa"/><path d="m510.912 496.617c-3.001 7.5-12.001 11.4-19.501 8.101-5.7-2.401-12.4-5.4-17.8-9-22.5-14.702-51-14.702-73.5 0-16.199 10.8-34.799 16.199-53.399 16.199-18.301 0-36.901-5.4-53.101-16.199-11.4-7.5-24.3-11.102-37.5-11.102v-30c18.9 0 37.5 5.402 54 16.201 22.5 14.7 51 14.7 73.5 0 32.401-21.601 75.099-21.601 107.5 0 3.9 2.401 7.8 4.499 11.7 6.299 7.801 3.001 11.4 11.701 8.101 19.501z" fill="#76e2f8"/></svg>