<svg id="Capa_1" enable-background="new 0 0 512 512" height="512" viewBox="0 0 512 512" width="512" xmlns="http://www.w3.org/2000/svg"><path d="m151 96v30h-120v-30c0-3.98 1.58-7.79 4.39-10.61l20-20c2.82-2.81 6.63-4.39 10.61-4.39h50c3.98 0 7.79 1.58 10.61 4.39l20 20c2.81 2.82 4.39 6.63 4.39 10.61z" fill="#1c6c94"/><path d="m467 61h-270.409c-5.61 0-10.751 3.131-13.326 8.115l-26.807 51.885h-141.458c-8.284 0-15 6.716-15 15v280c0 19.299 15.701 35 35 35h432c24.813 0 45-20.187 45-45v-300c0-24.813-20.187-45-45-45z" fill="#fcbe29"/><path d="m512 106v300c0 24.81-20.19 45-45 45h-211v-390h211c24.81 0 45 20.19 45 45z" fill="#fe9022"/><path d="m0 226h512v150h-512z" fill="#1c6c94"/><path d="m256 226h256v150h-256z" fill="#165771"/><circle cx="256" cy="271" fill="#165771" r="120"/><path d="m376 271c0 45.13-25.04 84.52-61.97 105-17.21 9.56-37 15-58.03 15v-240c50.26 0 93.41 31.06 111.23 75 5.66 13.9 8.77 29.1 8.77 45z" fill="#0c3f60"/><circle cx="256" cy="271" fill="#30d9f6" r="90"/><path d="m346 271c0 49.63-40.37 90-90 90v-180c33.25 0 62.34 18.12 77.92 45 7.68 13.24 12.08 28.62 12.08 45z" fill="#19c0ef"/><path d="m436 121h-60c-8.284 0-15 6.716-15 15s6.716 15 15 15h60c8.284 0 15-6.716 15-15s-6.716-15-15-15z" fill="#e0f4fe"/></svg>