<?xml version="1.0" encoding="iso-8859-1"?>
<!-- Generator: Adobe Illustrator 19.0.0, SVG Export Plug-In . SVG Version: 6.00 Build 0)  -->
<svg version="1.1" id="Capa_1" xmlns="http://www.w3.org/2000/svg" xmlns:xlink="http://www.w3.org/1999/xlink" x="0px" y="0px"
	 viewBox="0 0 512.001 512.001" style="enable-background:new 0 0 512.001 512.001;" xml:space="preserve">
<g>
	<path style="fill:#CCCCCC;" d="M407.087,202.379c-4.43,0-8.02-3.591-8.02-8.02v-91.955c0-4.429,3.59-8.02,8.02-8.02
		c4.43,0,8.02,3.591,8.02,8.02v91.954C415.106,198.789,411.517,202.379,407.087,202.379z"/>
	<path style="fill:#CCCCCC;" d="M485.674,127.8c-4.43,0-8.02-3.591-8.02-8.02V27.827c0-4.429,3.59-8.02,8.02-8.02
		c4.43,0,8.02,3.591,8.02,8.02v91.954C493.694,124.21,490.104,127.8,485.674,127.8z"/>
</g>
<g>
	<path style="fill:#756E75;" d="M371.551,398.668h-161.19c-4.43,0-8.02-3.591-8.02-8.02s3.59-8.02,8.02-8.02h161.19
		c15.172,0,27.516-12.343,27.516-27.515v-83.766c0-4.429,3.59-8.02,8.02-8.02c4.43,0,8.02,3.591,8.02,8.02v83.766
		C415.106,379.13,395.568,398.668,371.551,398.668z"/>
	<path style="fill:#756E75;" d="M418.432,453.199h-240.15c-4.43,0-8.02-3.591-8.02-8.02s3.59-8.02,8.02-8.02h240.15
		c32.656,0,59.223-26.567,59.223-59.223V215.831c0-4.429,3.59-8.02,8.02-8.02c4.43,0,8.02,3.591,8.02,8.02v162.107
		C493.694,419.437,459.931,453.199,418.432,453.199z"/>
</g>
<path style="fill:#F9C55F;" d="M318.551,485.842c-96.762,14.292-193.524,14.292-290.286,0c-10.81-1.596-19.109-10.399-19.975-21.293
	C-2.762,325.517-2.762,186.483,8.29,47.45c0.866-10.894,9.164-19.695,19.975-21.291c96.762-14.292,193.525-14.292,290.287,0
	c10.81,1.596,19.109,10.399,19.975,21.291c11.052,139.033,11.052,278.066,0,417.099C337.66,475.445,329.362,484.246,318.551,485.842
	z"/>
<path style="fill:#DDA645;" d="M33.25,482.788c-11.052-151.192-11.052-302.383,0-453.573c0.096-1.315,0.298-2.598,0.571-3.85
	c-1.852,0.263-3.705,0.522-5.557,0.796C17.454,27.756,9.155,36.559,8.289,47.452c-11.052,139.033-11.052,278.066,0,417.099
	c0.866,10.894,9.165,19.695,19.975,21.291c1.852,0.274,3.705,0.533,5.557,0.796C33.549,485.386,33.348,484.104,33.25,482.788z"/>
<path style="fill:#BFE8F7;" d="M282.052,211.459H64.763c-11.745,0-21.266-9.521-21.266-21.266V89.983
	c0-11.745,9.521-21.266,21.266-21.266h217.289c11.745,0,21.266,9.521,21.266,21.266v100.21
	C303.319,201.938,293.797,211.459,282.052,211.459z"/>
<path style="fill:#DDA645;" d="M282.052,219.478H64.763c-16.149,0-29.286-13.137-29.286-29.285V89.983
	c0-16.148,13.137-29.285,29.286-29.285h217.289c16.149,0,29.286,13.137,29.286,29.285v100.21
	C311.339,206.341,298.202,219.478,282.052,219.478z M64.763,76.737c-7.304,0-13.247,5.942-13.247,13.246v100.21
	c0,7.304,5.943,13.246,13.247,13.246h217.289c7.304,0,13.247-5.942,13.247-13.246V89.983c0-7.304-5.943-13.246-13.247-13.246H64.763
	z"/>
<g>
	<path style="fill:#61B4D1;" d="M202.217,180.84h-27.894c-4.43,0-8.02-3.591-8.02-8.02v-65.466c0-4.429,3.59-8.02,8.02-8.02h27.894
		c4.43,0,8.02,3.591,8.02,8.02v65.466C210.236,177.25,206.647,180.84,202.217,180.84z M182.342,164.801h11.855v-49.426h-11.855
		V164.801z"/>
	<path style="fill:#61B4D1;" d="M123.677,180.84c-4.43,0-8.02-3.591-8.02-8.02v-57.446H95.783c-4.43,0-8.02-3.591-8.02-8.02
		s3.59-8.02,8.02-8.02h27.894c4.43,0,8.02,3.591,8.02,8.02v65.466C131.697,177.25,128.107,180.84,123.677,180.84z"/>
	<path style="fill:#61B4D1;" d="M251.034,180.84c-4.43,0-8.02-3.591-8.02-8.02v-57.446h-19.875c-4.43,0-8.02-3.591-8.02-8.02
		s3.59-8.02,8.02-8.02h27.894c4.43,0,8.02,3.591,8.02,8.02v65.466C259.053,177.25,255.463,180.84,251.034,180.84z"/>
	<path style="fill:#61B4D1;" d="M150,132.566c-6.978,0-10.649-8.761-5.667-13.697c2.528-2.505,6.516-3.054,9.616-1.299
		c2.976,1.684,4.583,5.183,3.909,8.538C157.117,129.807,153.789,132.566,150,132.566z"/>
	<path style="fill:#61B4D1;" d="M150,163.649c-7.146,0-10.672-9.071-5.443-13.906c2.53-2.34,6.399-2.789,9.393-1.082
		c2.914,1.661,4.525,5.03,3.945,8.345C157.23,160.797,153.861,163.649,150,163.649z"/>
</g>
<g>
	<path style="fill:#F44A82;" d="M97.499,291.218H55.83c-6.811,0-12.333-5.522-12.333-12.333v-21.412
		c0-6.811,5.522-12.333,12.333-12.333h41.669c6.811,0,12.333,5.522,12.333,12.333v21.413
		C109.831,285.697,104.31,291.218,97.499,291.218z"/>
	<path style="fill:#F44A82;" d="M290.986,291.218h-41.669c-6.811,0-12.333-5.522-12.333-12.333v-21.412
		c0-6.811,5.522-12.333,12.333-12.333h41.669c6.811,0,12.333,5.522,12.333,12.333v21.413
		C303.319,285.697,297.798,291.218,290.986,291.218z"/>
	<path style="fill:#F44A82;" d="M194.242,291.218h-41.669c-6.811,0-12.333-5.522-12.333-12.333v-21.412
		c0-6.811,5.522-12.333,12.333-12.333h41.669c6.811,0,12.333,5.522,12.333,12.333v21.413
		C206.575,285.697,201.053,291.218,194.242,291.218z"/>
	<circle style="fill:#F44A82;" cx="173.406" cy="396.436" r="68.969"/>
</g>
<path style="fill:#E2276A;" d="M227.866,342.024c-0.007-0.007-0.013-0.015-0.02-0.022c-0.006-0.006-0.014-0.013-0.021-0.019
	c-30.018-29.996-78.843-29.989-108.854,0.019c-30.016,30.016-30.016,78.856,0,108.873c15.011,15.011,34.721,22.513,54.437,22.513
	c19.712,0,39.43-7.506,54.436-22.513c0.001,0,0.001,0,0.001,0C257.855,420.865,257.861,372.041,227.866,342.024z M130.313,353.342
	c11.881-11.881,27.488-17.822,43.095-17.822c13.08,0,26.152,4.189,37.04,12.536l-85.42,85.42
	C106.723,409.599,108.473,375.181,130.313,353.342z M216.505,439.533c-21.84,21.84-56.259,23.589-80.135,5.285l85.42-85.421
	C240.094,383.276,238.344,417.694,216.505,439.533z"/>
<g>
	<path style="fill:#DDA645;" d="M242.952,334.958c-7.263,0-10.772-9.351-5.242-14.094c2.707-2.322,6.718-2.574,9.69-0.598
		c2.686,1.787,4.069,5.157,3.397,8.317C250.022,332.235,246.7,334.958,242.952,334.958z"/>
	<path style="fill:#DDA645;" d="M268.615,363.829c-3.428,0-6.534-2.272-7.614-5.512c-1.079-3.236,0.09-6.928,2.833-8.953
		c5.807-4.289,14.12,1.043,12.627,8.087C275.687,361.103,272.364,363.829,268.615,363.829z"/>
	<path style="fill:#DDA645;" d="M273.427,404.461c-7.066,0-10.67-8.943-5.535-13.831c2.476-2.357,6.295-2.873,9.309-1.261
		c3.003,1.606,4.724,5.075,4.12,8.44C280.643,401.588,277.292,404.461,273.427,404.461z"/>
</g>
<path style="fill:#78CAEF;" d="M424.979,182.989h-35.785v107.42c0,8.858,7.18,16.038,16.038,16.038h3.708
	c8.858,0,16.038-7.18,16.038-16.038L424.979,182.989L424.979,182.989z"/>
<path style="fill:#61B4D1;" d="M425.004,191.937h-35.836c-4.941,0-8.947-4.006-8.947-8.947s4.006-8.947,8.947-8.947h35.836
	c4.941,0,8.947,4.006,8.947,8.947C433.951,187.93,429.946,191.937,425.004,191.937z"/>
<path style="fill:#F44A82;" d="M503.604,108.159h-35.858v107.672c0,8.858,7.18,16.038,16.038,16.038h3.781
	c8.858,0,16.038-7.18,16.038-16.038V108.159H503.604z"/>
<path style="fill:#E2276A;" d="M480.894,213.939V108.159h-13.148V213.94c0,9.902,8.027,17.929,17.929,17.929
	c2.324,0,4.537-0.457,6.574-1.261C485.603,227.984,480.894,221.518,480.894,213.939z"/>
<path style="fill:#61B4D1;" d="M402.314,288.555V182.989h-13.121v105.566c0,9.881,8.011,17.892,17.892,17.892
	c2.318,0,4.527-0.456,6.56-1.259C407.015,302.571,402.314,296.118,402.314,288.555z"/>
<path style="fill:#E2276A;" d="M503.036,117.124h-34.723c-4.952,0-8.965-4.014-8.965-8.965c0-4.951,4.013-8.965,8.965-8.965h34.723
	c4.952,0,8.965,4.014,8.965,8.965C512.001,113.109,507.988,117.124,503.036,117.124z"/>
<g>
</g>
<g>
</g>
<g>
</g>
<g>
</g>
<g>
</g>
<g>
</g>
<g>
</g>
<g>
</g>
<g>
</g>
<g>
</g>
<g>
</g>
<g>
</g>
<g>
</g>
<g>
</g>
<g>
</g>
</svg>
