<?xml version="1.0" encoding="iso-8859-1"?>
<!-- Generator: Adobe Illustrator 19.0.0, SVG Export Plug-In . SVG Version: 6.00 Build 0)  -->
<svg version="1.1" id="Capa_1" xmlns="http://www.w3.org/2000/svg" xmlns:xlink="http://www.w3.org/1999/xlink" x="0px" y="0px"
	 viewBox="0 0 512 512" style="enable-background:new 0 0 512 512;" xml:space="preserve">
<path style="fill:#82D8F9;" d="M284.329,0C135.064,0,31.854,125.874,73.711,247.375c2.785,8.083-1.246,16.982-9.235,20.028
	c-33.378,12.728-56.71,41.791-56.71,75.625c0,45.568,42.308,82.508,94.498,82.508c37.443,0,69.785-19.019,85.077-46.593
	c3.707-6.684,11.544-9.848,18.797-7.437c142.909,47.496,298.097-44.484,298.097-179.503C504.236,85.963,405.78,0,284.329,0z"/>
<path style="fill:#68BFEA;" d="M33.52,351.27c0-33.834,23.331-62.897,56.71-75.625c7.988-3.046,12.019-11.945,9.235-20.028
	c-49.827-144.634,104.033-283.3,273.27-239.456C345.68,5.777,315.779,0,284.329,0C135.064,0,31.854,125.874,73.711,247.375
	c2.785,8.083-1.246,16.982-9.235,20.028c-33.378,12.728-56.71,41.791-56.71,75.625c0,39.79,32.26,72.999,75.189,80.781
	C53.509,409.835,33.52,382.591,33.52,351.27z"/>
<ellipse style="fill:#82D8F9;" cx="168.541" cy="478.77" rx="46.917" ry="33.18"/>
<path style="fill:#68BFEA;" d="M147.381,478.773c0-15.165,14.392-27.943,34.04-31.902c-31.142-6.275-59.794,10.665-59.794,31.902
	c0,20.986,28.421,38.224,59.794,31.903C161.773,506.716,147.381,493.938,147.381,478.773z"/>
<path style="fill:#1C84AD;" d="M320.115,270.947c-40.768,0-73.937-37.094-73.937-82.69s33.168-82.69,73.937-82.69
	c40.767,0,73.934,37.094,73.934,82.69S360.882,270.947,320.115,270.947z M320.115,133.164c-25.552,0-46.34,24.715-46.34,55.093
	s20.787,55.093,46.34,55.093c25.55,0,46.337-24.715,46.337-55.093C366.452,157.879,345.665,133.164,320.115,133.164z"/>
<path style="fill:#137B9B;" d="M274.545,198.195c-5.602-36.39,17.819-82.233,59.477-91.14
	c-46.083-9.854-87.844,29.977-87.844,81.202c0,51.528,42.044,90.996,87.844,81.202C302.734,262.77,278.396,233.966,274.545,198.195z
	"/>
<path style="fill:#1C84AD;" d="M107.949,188.257c0-70.178,73.163-107.736,120.837-63.886c5.609,5.159,5.974,13.889,0.815,19.498
	c-5.159,5.608-13.889,5.973-19.497,0.814c-30.262-27.833-74.558-2.117-74.558,43.574s44.299,71.411,74.557,43.575
	c5.608-5.158,14.339-4.796,19.498,0.814c5.158,5.608,4.794,14.338-0.814,19.497C181.159,295.952,107.949,258.533,107.949,188.257z"
	/>
<g>
	<path style="fill:#137B9B;" d="M135.344,188.257c0-40.348,25.979-74.017,60.208-81.238c-45.755-9.68-87.603,29.896-87.603,81.238
		c0,51.477,41.968,90.893,87.603,81.238C161.324,262.274,135.344,228.605,135.344,188.257z"/>
	<path style="fill:#137B9B;" d="M434.706,285.042h-10.799c35.218-37.919-11.036-66.092-29.356-41.678
		c-2.561,3.413-1.87,8.256,1.543,10.817c3.413,2.562,8.256,1.87,10.817-1.543c0.829-1.105,3.742-2.933,5.498-2.933
		c3.56,0,7.987,1.339,8.862,7.718c0.688,5.018-4.95,17.285-23.011,28.836c-2.891,1.849-4.216,5.383-3.253,8.678
		c0.963,3.294,3.984,5.557,7.416,5.557h32.284c4.267,0,7.726-3.459,7.726-7.726C442.432,288.5,438.973,285.042,434.706,285.042z"/>
</g>
<g>
</g>
<g>
</g>
<g>
</g>
<g>
</g>
<g>
</g>
<g>
</g>
<g>
</g>
<g>
</g>
<g>
</g>
<g>
</g>
<g>
</g>
<g>
</g>
<g>
</g>
<g>
</g>
<g>
</g>
</svg>
