<?xml version="1.0" encoding="iso-8859-1"?>
<!-- Generator: Adobe Illustrator 19.0.0, SVG Export Plug-In . SVG Version: 6.00 Build 0)  -->
<svg version="1.1" id="Capa_1" xmlns="http://www.w3.org/2000/svg" xmlns:xlink="http://www.w3.org/1999/xlink" x="0px" y="0px"
	 viewBox="0 0 512 512" style="enable-background:new 0 0 512 512;" xml:space="preserve">
<path
   id="path2"
   d="M284.329,0C135.064,0,31.854,125.874,73.711,247.375c2.785,8.083-1.246,16.982-9.235,20.028  c-33.378,12.728-56.71,41.791-56.71,75.625c0,45.568,42.308,82.508,94.498,82.508c37.443,0,69.785-19.019,85.077-46.593  c3.707-6.684,11.544-9.848,18.797-7.437c142.909,47.496,298.097-44.484,298.097-179.503C504.236,85.963,405.78,0,284.329,0z"
   style="fill:#82D8F9;" />
<path
   id="path4"
   d="M33.52,351.27c0-33.834,23.331-62.897,56.71-75.625c7.988-3.046,12.019-11.945,9.235-20.028  c-49.827-144.634,104.033-283.3,273.27-239.456C345.68,5.777,315.779,0,284.329,0C135.064,0,31.854,125.874,73.711,247.375  c2.785,8.083-1.246,16.982-9.235,20.028c-33.378,12.728-56.71,41.791-56.71,75.625c0,39.79,32.26,72.999,75.189,80.781  C53.509,409.835,33.52,382.591,33.52,351.27z"
   style="fill:#68BFEA;" />
<ellipse
   id="ellipse6"
   ry="33.18"
   rx="46.917"
   cy="478.77"
   cx="168.541"
   style="fill:#82D8F9;" />
<path
   id="path8"
   d="M147.381,478.773c0-15.165,14.392-27.943,34.04-31.902c-31.142-6.275-59.794,10.665-59.794,31.902  c0,20.986,28.421,38.224,59.794,31.903C161.773,506.716,147.381,493.938,147.381,478.773z"
   style="fill:#68BFEA;" />
</svg>