<?xml version="1.0" encoding="iso-8859-1"?>
<!-- Generator: Adobe Illustrator 19.0.0, SVG Export Plug-In . SVG Version: 6.00 Build 0)  -->
<svg xmlns="http://www.w3.org/2000/svg" xmlns:xlink="http://www.w3.org/1999/xlink" version="1.1" id="Capa_1" x="0px" y="0px" viewBox="0 0 520 520" style="enable-background:new 0 0 520 520;" xml:space="preserve" width="512" height="512">
<g id="XMLID_1574_">
	<path id="XMLID_1575_" style="fill:#EF5350;" d="M190.809,92.288c-30.143,0-58.483,11.739-79.797,33.053   c-21.315,21.315-33.054,49.654-33.054,79.798s11.739,58.483,33.054,79.798l138.382,138.382c2.929,2.929,6.767,4.394,10.606,4.394   L270.008,260L260,115.965C240.293,100.61,216.191,92.288,190.809,92.288z"/>
	<path id="XMLID_1576_" style="fill:#D32F2F;" d="M408.989,125.341c-21.315-21.314-49.654-33.053-79.798-33.053   c-25.383,0-49.484,8.323-69.191,23.678v311.747c3.839,0,7.678-1.465,10.606-4.394l138.383-138.382   C452.99,240.936,452.99,169.341,408.989,125.341z"/>
	<path id="XMLID_1577_" style="fill:#FFF04A;" d="M222.862,192.283c-2.816-4.695-7.97-7.497-13.438-7.271   c-5.471,0.21-10.392,3.384-12.841,8.281L170.729,245H15c-8.284,0-15,6.716-15,15s6.716,15,15,15h165   c5.682,0,10.875-3.21,13.417-8.292l17.78-35.56l45.941,76.569c0.786,1.31,1.757,2.465,2.862,3.454L270.008,285L260,254.179   L222.862,192.283z"/>
	<path id="XMLID_1580_" style="fill:#FFCD00;" d="M505,245H347.5L322,211c-3.119-4.159-8.167-6.404-13.347-5.939   c-5.178,0.467-9.745,3.582-12.069,8.231l-27.78,55.56L260,254.179v56.992c2.717,2.432,6.263,3.829,9.998,3.829   c0.191,0,0.385-0.003,0.577-0.011c5.471-0.21,10.393-3.384,12.841-8.281l29.146-58.292L328,269c2.833,3.777,7.278,6,12,6h165   c8.284,0,15-6.716,15-15S513.284,245,505,245z"/>
</g>















</svg>
