<?xml version="1.0" encoding="iso-8859-1"?>
<!-- Generator: Adobe Illustrator 19.0.0, SVG Export Plug-In . SVG Version: 6.00 Build 0)  -->
<svg version="1.1" id="Capa_1" xmlns="http://www.w3.org/2000/svg" xmlns:xlink="http://www.w3.org/1999/xlink" x="0px" y="0px"
	 viewBox="0 0 512 512" style="enable-background:new 0 0 512 512;" xml:space="preserve">
<path style="fill:#78CAEF;" d="M431.1,132.092v203.133c0,96.943-78.067,176.727-175.009,176.775
	c-96.746,0.048-175.19-78.364-175.19-175.1V132.092c0-12.588,10.205-22.793,22.793-22.793h80.62
	c12.588,0,22.793,10.205,22.793,22.793V336.08c0,26.768,21.172,49.19,47.935,49.705c27.392,0.527,49.853-21.6,49.853-48.885V132.092
	c0-12.588,10.205-22.793,22.793-22.793h80.62C420.895,109.299,431.1,119.504,431.1,132.092z"/>
<g>
	<path style="fill:#F44A82;" d="M103.697,109.299h80.617c12.588,0,22.793,10.205,22.793,22.793v75.009H80.904v-75.009
		C80.904,119.504,91.109,109.299,103.697,109.299z"/>
	<path style="fill:#F44A82;" d="M431.1,207.098V336.9c0,96.705-78.395,175.1-175.1,175.1V385.794
		c26.955,0,48.894-21.928,48.894-48.894V207.098L431.1,207.098L431.1,207.098z"/>
</g>
<g>
	<path style="fill:#F9C55F;" d="M144.004,93.175c-4.357,0-7.888-3.532-7.888-7.888v-77.4c0-4.356,3.531-7.888,7.888-7.888
		s7.888,3.532,7.888,7.888v77.4C151.892,89.644,148.36,93.175,144.004,93.175z"/>
	<path style="fill:#F9C55F;" d="M186.589,93.178c-0.892,0-1.796-0.151-2.683-0.472c-4.097-1.482-6.217-6.003-4.735-10.101
		l20.559-56.841c1.481-4.097,6.006-6.216,10.101-4.735c4.097,1.482,6.217,6.004,4.735,10.101l-20.559,56.841
		C192.845,91.181,189.815,93.178,186.589,93.178z"/>
	<path style="fill:#F9C55F;" d="M101.418,93.178c-3.227,0-6.256-1.996-7.418-5.207L73.442,31.13
		c-1.482-4.096,0.637-8.619,4.735-10.101c4.091-1.479,8.618,0.637,10.101,4.735l20.559,56.841c1.482,4.096-0.637,8.619-4.735,10.101
		C103.215,93.026,102.31,93.178,101.418,93.178z"/>
	<path style="fill:#F9C55F;" d="M367.997,93.175c-4.357,0-7.888-3.532-7.888-7.888v-77.4c0-4.356,3.531-7.888,7.888-7.888
		c4.357,0,7.888,3.532,7.888,7.888v77.4C375.885,89.644,372.355,93.175,367.997,93.175z"/>
	<path style="fill:#F9C55F;" d="M410.581,93.178c-0.892,0-1.796-0.151-2.683-0.472c-4.097-1.482-6.217-6.003-4.735-10.101
		l20.559-56.841c1.481-4.097,6.005-6.216,10.101-4.735c4.097,1.482,6.217,6.004,4.735,10.101l-20.559,56.841
		C416.839,91.181,413.809,93.178,410.581,93.178z"/>
	<path style="fill:#F9C55F;" d="M325.413,93.178c-3.227,0-6.256-1.996-7.418-5.207L297.436,31.13
		c-1.482-4.096,0.637-8.619,4.735-10.101c4.091-1.479,8.617,0.637,10.101,4.735l20.559,56.841c1.482,4.096-0.637,8.619-4.735,10.101
		C327.21,93.026,326.304,93.178,325.413,93.178z"/>
</g>
<g>
</g>
<g>
</g>
<g>
</g>
<g>
</g>
<g>
</g>
<g>
</g>
<g>
</g>
<g>
</g>
<g>
</g>
<g>
</g>
<g>
</g>
<g>
</g>
<g>
</g>
<g>
</g>
<g>
</g>
</svg>
