<?xml version="1.0" encoding="iso-8859-1"?>
<!-- Generator: Adobe Illustrator 19.0.0, SVG Export Plug-In . SVG Version: 6.00 Build 0)  -->
<svg version="1.1" id="Capa_1" xmlns="http://www.w3.org/2000/svg" xmlns:xlink="http://www.w3.org/1999/xlink" x="0px" y="0px"
	 viewBox="0 0 512 512" style="enable-background:new 0 0 512 512;" xml:space="preserve">
<path style="fill:#DFF3F4;" d="M479.387,417.952L266.423,80.878c-4.839-7.66-16.01-7.657-20.845,0L32.612,417.952
	c-5.186,8.211,0.695,18.914,10.424,18.914h425.927C478.677,436.866,484.582,426.175,479.387,417.952z"/>
<path style="fill:#AAE8F2;" d="M60.478,417.952L269.933,86.433c-2.018-1.918-4.307-11.299-13.933-11.299
	c-2.043,0-7.148,0.559-10.422,5.744L32.612,417.952c-5.186,8.211,0.695,18.914,10.424,18.914h27.865
	C61.188,436.866,55.282,426.178,60.478,417.952z"/>
<path style="fill:#485760;" d="M309.753,324.278c-5.595-1.4-9.383-6.477-9.37-12.244c0-0.033,0-0.067,0-0.1
	c0-16.978-9.537-31.722-23.543-39.183c-5.082-2.707-7.48-8.69-5.898-14.226l21.636-75.725c1.998-6.993-2.426-14.231-9.575-15.567
	c-17.529-3.275-35.982-3.367-54.005,0c-7.149,1.336-11.573,8.573-9.575,15.567l21.636,75.725c1.582,5.537-0.816,11.519-5.898,14.226
	c-14.118,7.521-23.595,22.38-23.543,39.283c0.013,5.767-3.776,10.843-9.37,12.244l-75.521,18.906
	c-7.061,1.768-11.097,9.222-8.69,16.091c6.074,17.327,15.319,33.162,27.041,46.811c4.737,5.515,13.209,5.729,18.265,0.504
	l53.466-55.26c4.117-4.255,10.62-4.921,15.635-1.774c14.176,8.896,32.547,9.142,47.115,0c5.015-3.147,11.518-2.481,15.635,1.774
	l53.466,55.26c5.055,5.225,13.528,5.011,18.265-0.504c11.722-13.648,20.967-29.483,27.041-46.811
	c2.408-6.869-1.629-14.323-8.69-16.091L309.753,324.278z"/>
<path style="fill:#FF9203;" d="M468.963,467.49H43.036c-33.87,0-54.401-37.267-36.314-65.896L219.688,64.521
	C227.603,51.99,241.178,44.51,256,44.51c14.823,0,28.397,7.481,36.314,20.011h-0.001l212.964,337.074
	C523.368,430.228,502.827,467.49,468.963,467.49z M246.449,81.428L33.484,418.502c-4.754,7.526,0.638,17.334,9.553,17.334h425.927
	c8.917,0,14.305-9.811,9.553-17.334L265.553,81.428h-0.001C261.126,74.421,250.889,74.398,246.449,81.428z"/>
<path style="fill:#F47A0B;" d="M42.634,445.268c-1.833-3.326-3.186-6.791-4.089-10.32c-5.756-2.454-9.102-10.05-5.061-16.447
	C70.421,359.98,256.827,64.644,256.905,64.521c4.403-6.969,10.559-12.37,17.704-15.796C268.907,45.99,262.578,44.51,256,44.51
	c-14.822,0-28.396,7.481-36.312,20.011L6.723,401.594c-18.09,28.634,2.449,65.896,36.314,65.896h37.218
	C64.366,467.49,50.303,459.183,42.634,445.268z"/>
<circle style="fill:#FF9203;" cx="256" cy="311.99" r="18.2"/>
<path style="fill:#404B51;" d="M271.543,265.992c-1.159-2.604-1.427-5.612-0.601-8.503l21.636-75.726
	c1.998-6.993-2.426-14.231-9.575-15.566c-17.528-3.275-35.981-3.367-54.005,0c-7.149,1.336-11.573,8.573-9.575,15.566l21.636,75.726
	c1.582,5.537-0.816,11.519-5.898,14.226c-14.522,7.736-23.666,22.953-23.543,39.283c0.013,5.767-3.776,10.843-9.37,12.244
	l-75.521,18.906c-7.061,1.768-11.097,9.222-8.69,16.091c6.074,17.327,15.319,33.162,27.041,46.811
	c4.737,5.515,13.209,5.729,18.265,0.504l53.466-55.26c4.117-4.255,10.62-4.921,15.635-1.774c9.784,6.14,21.874,8.387,33.853,5.539
	C225.903,336.846,229.358,278.26,271.543,265.992z"/>
<path style="fill:#F47A0B;" d="M255.49,311.992c0-6.837,3.776-12.787,9.352-15.896c-2.619-1.46-5.631-2.299-8.842-2.299
	c-10.049,0-18.195,8.146-18.195,18.195c0,13.923,15.002,22.605,27.037,15.896C259.266,324.779,255.49,318.83,255.49,311.992z"/>
<g>
</g>
<g>
</g>
<g>
</g>
<g>
</g>
<g>
</g>
<g>
</g>
<g>
</g>
<g>
</g>
<g>
</g>
<g>
</g>
<g>
</g>
<g>
</g>
<g>
</g>
<g>
</g>
<g>
</g>
</svg>
