<?xml version="1.0" encoding="iso-8859-1"?>
<!-- Generator: Adobe Illustrator 19.0.0, SVG Export Plug-In . SVG Version: 6.00 Build 0)  -->
<svg version="1.1" id="Capa_1" xmlns="http://www.w3.org/2000/svg" xmlns:xlink="http://www.w3.org/1999/xlink" x="0px" y="0px"
	 viewBox="0 0 512 512" style="enable-background:new 0 0 512 512;" xml:space="preserve">
<path style="fill:#FE5E47;" d="M247.585,507.635L100.565,298.81c-53.102-75.426-44.206-178.053,21.086-243.246l0,0
	c74.198-74.086,194.498-74.086,268.696,0l0,0c65.292,65.194,74.189,167.82,21.086,243.246l-147.02,208.825
	C260.318,513.455,251.682,513.455,247.585,507.635z"/>
<path style="fill:#F53737;" d="M411.435,298.812l-147.02,208.824c-4.096,5.819-12.733,5.819-16.83,0L243,501.122L385.435,298.81
	c53.103-75.426,44.206-178.053-21.086-243.247l0,0C330.557,21.825,287.205,3.458,243,0.449
	c52.861-3.598,106.941,14.77,147.348,55.116l0,0C455.641,120.759,464.537,223.385,411.435,298.812z"/>
<path style="fill:#DB3131;" d="M384,180c0,70.692-57.308,128-128,128s-128-57.308-128-128S185.308,52,256,52S384,109.308,384,180z"
	/>
<path style="fill:#FFECA1;" d="M354,180c0,54.124-43.876,98-98,98s-98-43.876-98-98s43.876-98,98-98S354,125.876,354,180z"/>
<path style="fill:#FF904E;" d="M261.171,40.094c73.208,2.658,132.077,61.527,134.735,134.735c0.103,2.826-2.178,5.171-5.006,5.171
	H261c-2.761,0-5-2.239-5-5V45.099C256,42.272,258.345,39.991,261.171,40.094z"/>
<path style="fill:#FFB05F;" d="M354,180h-93c-2.761,0-5-2.239-5-5V82C310.124,82,354,125.876,354,180z"/>
<g>
</g>
<g>
</g>
<g>
</g>
<g>
</g>
<g>
</g>
<g>
</g>
<g>
</g>
<g>
</g>
<g>
</g>
<g>
</g>
<g>
</g>
<g>
</g>
<g>
</g>
<g>
</g>
<g>
</g>
</svg>
