<svg height="512pt" viewBox="0 -16 512 512" width="512pt" xmlns="http://www.w3.org/2000/svg"><path d="m512 435c0 24.398438-19.949219 45-45 45h-31c-8.402344 0-15-6.601562-15-15v-105h46c24.902344 0 45 50.097656 45 75zm0 0" fill="#9abadb"/><path d="m512 210-34.199219 15 34.199219 15v195c0-24.902344-20.097656-45-45-45h-392v-330h361c41.398438 0 76 33.601562 76 75zm0 0" fill="#e0f4ff"/><path d="m512 240v195c0-24.902344-20.097656-45-45-45h-392v-165h402.800781zm0 0" fill="#bbdcff"/><path d="m512 210v30h-65.199219l-26.699219 79.800781c-1.800781 6-7.5 10.199219-14.101562 10.199219-6.597656 0-12.296875-4.199219-14.097656-10.199219l-31.804688-94.800781-14.097656-42.601562-14.097656 42.601562-31.804688 94.800781c-1.796875 6-7.5 9.898438-13.796875 10.199219-6.300781.300781-12-3.601562-14.101562-9.300781l-38.398438-95.699219-9.300781-23.402344-15 30c-2.699219 5.101563-7.800781 8.402344-13.5 8.402344h-31c-8.402344 0-15-6.601562-15-15 0-8.402344 6.597656-15 15-15h21.699219l25.800781-51.601562c2.699219-5.398438 7.5-9 14.101562-8.398438 6 .300781 11.097657 3.898438 13.199219 9.300781l26.398438 65.699219 18.601562 46.5 15.597657-46.5 31.503906-94.800781c3.898437-12.300781 24.296875-12.300781 28.195312 0l31.804688 94.800781 14.097656 42.597656 14.398438-42.597656 1.5-4.800781c1.800781-6 7.503906-10.199219 14.101562-10.199219zm0 0" fill="#f03800"/><g fill="#cd0000"><path d="m150 225h62.800781l-3.300781 6.597656c-2.699219 5.101563-7.800781 8.402344-13.5 8.402344h-31c-8.402344 0-15-6.601562-15-15zm0 0"/><path d="m331.902344 225-31.804688 94.800781c-1.796875 6-7.5 9.898438-13.796875 10.199219-6.300781.300781-12-3.601562-14.101562-9.300781l-38.398438-95.699219h32.398438l18.601562 46.5 15.597657-46.5zm0 0"/><path d="m512 225v15h-65.199219l-26.699219 79.800781c-1.800781 6-7.5 10.199219-14.101562 10.199219-6.597656 0-12.296875-4.199219-14.097656-10.199219l-31.804688-94.800781h31.804688l14.097656 42.597656 14.398438-42.597656zm0 0"/></g><path d="m90 15v450c0 8.398438-6.597656 15-15 15s-15-6.601562-15-15v-450c0-8.402344 6.597656-15 15-15s15 6.597656 15 15zm0 0" fill="#895d3c"/><path d="m90 225v240c0 8.398438-6.597656 15-15 15s-15-6.601562-15-15v-240zm0 0" fill="#714c2f"/><path d="m174.902344 213.898438-49.800782-44.699219c-13.800781-12.300781-31.5-19.199219-50.101562-19.199219-41.398438 0-75 33.601562-75 75s33.601562 75 75 75c18.601562 0 36.300781-6.902344 50.097656-19.199219l49.800782-44.699219c3.300781-2.703124 5.101562-6.902343 5.101562-11.101562s-1.800781-8.402344-5.097656-11.101562zm-99.902344 26.101562c-8.402344 0-15-6.601562-15-15 0-8.402344 6.597656-15 15-15s15 6.597656 15 15c0 8.398438-6.597656 15-15 15zm0 0" fill="#ff641a"/><path d="m180 225c0 4.199219-1.800781 8.398438-5.097656 11.101562l-49.800782 44.699219c-13.800781 12.296875-31.5 19.199219-50.101562 19.199219-41.398438 0-75-33.601562-75-75h60c0 8.398438 6.597656 15 15 15s15-6.601562 15-15zm0 0" fill="#f03800"/></svg>