<svg height="512pt" viewBox="0 0 512 512" width="512pt" xmlns="http://www.w3.org/2000/svg"><path d="m256 512c-6.074219 0-11.554688-3.664062-13.867188-9.285156l-14.4375-35.023438c-4.078124-9.882812-12.679687-17.441406-23.011718-20.210937-10.320313-2.765625-21.539063-.523438-30.011719 6l-30.019531 23.117187c-4.8125 3.707032-11.390625 4.144532-16.652344 1.105469s-8.171875-8.949219-7.367188-14.972656l5.011719-37.558594c1.414063-10.597656-2.257812-21.4375-9.816406-28.992187-7.5625-7.570313-18.40625-11.238282-29.003906-9.824219l-37.554688 5.011719c-6.027343.804687-11.9375-2.105469-14.972656-7.367188-3.039063-5.261719-2.605469-11.839844 1.105469-16.652344l23.117187-30.023437c6.523438-8.46875 8.765625-19.6875 6-30.015625-2.773437-10.324219-10.328125-18.929688-20.214843-23.007813l-35.019532-14.433593c-5.621094-2.3125-9.285156-7.789063-9.285156-13.867188s3.664062-11.554688 9.285156-13.867188l35.023438-14.4375c9.882812-4.074218 17.441406-12.679687 20.214844-23.011718 2.761718-10.320313.519531-21.539063-6.003907-30.011719l-23.117187-30.019531c-3.707032-4.8125-4.144532-11.390625-1.105469-16.652344s8.945313-8.175781 14.972656-7.367188l37.558594 5.011719c10.597656 1.414063 21.4375-2.253906 28.992187-9.816406 7.570313-7.5625 11.238282-18.402344 9.824219-29.003906l-5.011719-37.554688c-.804687-6.023437 2.105469-11.933593 7.367188-14.972656s11.839844-2.601563 16.652344 1.105469l30.019531 23.121094c8.472656 6.519531 19.691406 8.761718 30.019531 5.996093 10.324219-2.769531 18.929688-10.328125 23.007813-20.214843l14.433593-35.019532c2.3125-5.621094 7.792969-9.285156 13.867188-9.285156s11.554688 3.664062 13.867188 9.285156l14.4375 35.023438c4.078124 9.882812 12.679687 17.441406 23.011718 20.210937 10.320313 2.765625 21.539063.523438 30.011719-6l30.019531-23.117187c4.8125-3.707032 11.390625-4.144532 16.652344-1.105469 5.265625 3.039063 8.171875 8.949219 7.367188 14.972656l-5.011719 37.558594c-1.414063 10.597656 2.257812 21.4375 9.816406 28.992187 7.5625 7.570313 18.402344 11.234376 29.003906 9.824219l37.554688-5.011719c6.027343-.804687 11.9375 2.105469 14.972656 7.367188 3.039063 5.261719 2.605469 11.839844-1.105469 16.652344l-23.117187 30.023437c-6.523438 8.46875-8.765625 19.6875-6 30.015625 2.773437 10.324219 10.328125 18.929688 20.214843 23.007813l35.023438 14.433593c5.617188 2.3125 9.28125 7.789063 9.28125 13.867188s-3.664062 11.554688-9.285156 13.867188l-35.023438 14.4375c-9.882812 4.074218-17.441406 12.679687-20.214844 23.011718-2.761718 10.320313-.519531 21.539063 6.003907 30.011719l23.117187 30.019531c3.707032 4.8125 4.144532 11.390625 1.105469 16.652344s-8.949219 8.171875-14.972656 7.367188l-37.558594-5.011719c-10.59375-1.410157-21.4375 2.253906-28.992187 9.816406-7.570313 7.5625-11.238282 18.402344-9.824219 29.003906l5.011719 37.554688c.804687 6.023437-2.105469 11.933593-7.367188 14.972656s-11.835938 2.601563-16.652344-1.105469l-30.019531-23.121094c-8.472656-6.519531-19.691406-8.761718-30.019531-5.996093-10.324219 2.769531-18.929688 10.328125-23.007813 20.214843l-14.433593 35.019532c-2.3125 5.621094-7.792969 9.285156-13.867188 9.285156zm0 0" fill="#ffee4a"/><path d="m269.867188 502.714844 14.433593-35.019532c4.082031-9.886718 12.683594-17.445312 23.011719-20.214843 10.324219-2.765625 21.546875-.523438 30.015625 6l30.019531 23.117187c4.816406 3.707032 11.390625 4.144532 16.652344 1.105469 5.265625-3.039063 8.171875-8.949219 7.367188-14.972656l-5.011719-37.554688c-1.414063-10.601562 2.257812-21.441406 9.824219-29.003906 7.554687-7.558594 18.398437-11.226563 28.996093-9.816406l37.554688 5.011719c6.023437.804687 11.9375-2.101563 14.972656-7.367188 3.039063-5.261719 2.605469-11.835938-1.105469-16.652344l-23.117187-30.019531c-6.523438-8.46875-8.765625-19.691406-6-30.011719 2.769531-10.332031 10.328125-18.933594 20.210937-23.011718l35.027344-14.4375c5.617188-2.3125 9.28125-7.789063 9.28125-13.867188s-3.664062-11.554688-9.285156-13.867188l-35.019532-14.4375c-9.886718-4.078124-17.445312-12.679687-20.214843-23.003906-2.765625-10.328125-.523438-21.546875 5.996093-30.019531l23.121094-30.019531c3.707032-4.8125 4.144532-11.390625 1.105469-16.652344s-8.945313-8.171875-14.972656-7.367188l-37.554688 5.011719c-10.601562 1.410157-21.441406-2.253906-29.003906-9.824219-7.5625-7.554687-11.230469-18.394531-9.816406-28.996093l5.011719-37.554688c.804687-6.023437-2.105469-11.933593-7.367188-14.972656-5.265625-3.039063-11.839844-2.605469-16.652344 1.105469l-30.019531 23.117187c-8.472656 6.523438-19.691406 8.765625-30.011719 6-10.332031-2.773437-18.9375-10.328125-23.011718-20.210937l-14.4375-35.023438c-2.3125-5.621094-7.792969-9.285156-13.867188-9.285156v512c6.074219 0 11.554688-3.664062 13.867188-9.285156zm0 0" fill="#ffcd37"/><path d="m256 383.46875c-70.285156 0-127.46875-57.183594-127.46875-127.46875s57.183594-127.46875 127.46875-127.46875 127.46875 57.183594 127.46875 127.46875-57.183594 127.46875-127.46875 127.46875zm0 0" fill="#ffcd37"/><path d="m383.46875 256c0-70.285156-57.183594-127.46875-127.46875-127.46875v254.9375c70.285156 0 127.46875-57.183594 127.46875-127.46875zm0 0" fill="#ffa000"/></svg>