<svg height="512pt" viewBox="-65 0 512 512" width="512pt" xmlns="http://www.w3.org/2000/svg"><path d="m187.949219 296.042969v-227.078125c0-38.089844-30.875-68.964844-68.964844-68.964844-38.085937 0-68.960937 30.875-68.960937 68.964844v227.078125c-30.277344 21.570312-50.023438 56.964843-50.023438 96.972656 0 65.710937 53.273438 118.984375 118.984375 118.984375 65.714844 0 118.988281-53.273438 118.988281-118.984375 0-40.007813-19.746094-75.402344-50.023437-96.972656zm0 0" fill="#d3ddea"/><path d="m196.171875 393.015625c0 42.558594-34.617187 77.1875-77.1875 77.1875-42.558594 0-77.1875-34.628906-77.1875-77.1875 0-24.921875 12.144531-48.441406 32.476563-62.933594l17.542968-12.496093v-248.625c0-14.984376 12.183594-27.167969 27.167969-27.167969s27.167969 12.183593 27.167969 27.167969v248.625l17.542968 12.496093c20.34375 14.492188 32.476563 38.011719 32.476563 62.933594zm0 0" fill="#84abc1"/><path d="m118.984375 470.203125c-42.558594 0-77.1875-34.628906-77.1875-77.1875 0-24.921875 12.140625-48.441406 32.472656-62.933594l17.546875-12.496093v-248.625c0-14.984376 12.183594-27.167969 27.167969-27.167969-8.550781 0-10.285156 12.183593-10.285156 27.167969v248.625s-33.769531 26.464843-33.769531 75.429687c0 42.558594 19.769531 77.1875 44.054687 77.1875zm0 0" fill="#4d87a1"/><path d="m146.152344 68.960938v154.304687h-54.335938v-154.304687c0-14.984376 12.183594-27.167969 27.167969-27.167969s27.167969 12.183593 27.167969 27.167969zm0 0" fill="#fff"/><g fill="#84abc1"><path d="m91.816406 271.652344h54.335938v15.671875h-54.335938zm0 0"/><path d="m91.816406 211.773438h54.335938v15.671874h-54.335938zm0 0"/><path d="m91.816406 151.898438h54.335938v15.671874h-54.335938zm0 0"/><path d="m91.816406 92.019531h54.335938v15.675781h-54.335938zm0 0"/></g><path d="m377.640625 208.441406-16.066406-9.277344 16.066406-9.277343c3.75-2.164063 5.035156-6.957031 2.871094-10.703125-2.164063-3.75-6.957031-5.035156-10.707031-2.871094l-16.070313 9.277344v-18.554688c0-4.328125-3.507813-7.835937-7.835937-7.835937-4.328126 0-7.835938 3.507812-7.835938 7.835937v18.554688l-16.070312-9.277344c-3.75-2.164062-8.542969-.878906-10.703126 2.871094-2.164062 3.746094-.882812 8.539062 2.867188 10.703125l16.070312 9.277343-16.070312 9.277344c-3.75 2.164063-5.03125 6.957032-2.867188 10.707032 1.449219 2.511718 4.085938 3.917968 6.792969 3.917968 1.328125 0 2.675781-.339844 3.910157-1.050781l16.070312-9.277344v18.554688c0 4.328125 3.507812 7.835937 7.835938 7.835937 4.328124 0 7.835937-3.507812 7.835937-7.835937v-18.554688l16.070313 9.277344c1.234374.710937 2.582031 1.050781 3.910156 1.050781 2.710937 0 5.34375-1.40625 6.796875-3.917968 2.164062-3.75.878906-8.542969-2.871094-10.707032zm0 0" fill="#d3ddea"/><path d="m339.132812 128.5625c1.234376.714844 2.582032 1.054688 3.914063 1.054688 2.707031 0 5.339844-1.410157 6.792969-3.921876 2.164062-3.746093.878906-8.539062-2.867188-10.703124l-42.03125-24.265626 42.03125-24.265624c3.746094-2.164063 5.03125-6.957032 2.867188-10.703126-2.164063-3.75-6.957032-5.035156-10.707032-2.871093l-42.027343 24.265625v-48.527344c0-4.328125-3.507813-7.835938-7.835938-7.835938s-7.835937 3.507813-7.835937 7.835938v48.527344l-42.027344-24.265625c-3.75-2.164063-8.542969-.878907-10.707031 2.871093-2.164063 3.746094-.878907 8.539063 2.867187 10.703126l42.03125 24.265624-42.03125 24.265626c-3.746094 2.164062-5.03125 6.957031-2.867187 10.703124 1.453125 2.515626 4.085937 3.921876 6.792969 3.921876 1.332031 0 2.679687-.339844 3.914062-1.054688l42.027344-24.261719v48.527344c0 4.328125 3.507812 7.835937 7.835937 7.835937s7.835938-3.507812 7.835938-7.835937v-48.527344zm0 0" fill="#d3ddea"/></svg>