<svg height="512pt" viewBox="-41 0 512 512" width="512pt" xmlns="http://www.w3.org/2000/svg"><path d="m103.207031.00390625c-61.679687 35.69531275-103.207031 102.33984375-103.207031 178.72656275 0 2.730469.0546875 5.445312.15625 8.148437 5.039062 129.746094 201.058594 129.746094 206.097656 0 .105469-2.703125.160156-5.417968.160156-8.148437-.003906-76.386719-41.527343-143.03125-103.207031-178.72656275zm0 0" fill="#84abc1"/><path d="m103.207031 284.191406c-50.246093 0-100.488281-32.46875-103.007812-97.3125-.097657-2.71875-.199219-5.4375-.199219-8.15625 0-76.371094 41.535156-143.027344 103.207031-178.722656-12.4375 35.695312-49.058593 102.351562-49.058593 178.722656 0 2.71875 0 5.4375.050781 8.15625.503906 64.84375 38.886719 97.3125 49.007812 97.3125zm0 0" fill="#4d87a1"/><path d="m343.625 146.527344c-51.140625 29.59375-85.570312 84.851562-85.570312 148.183594 0 2.261718.046874 4.511718.132812 6.753906 4.179688 107.574218 166.691406 107.574218 170.871094 0 .085937-2.238282.132812-4.492188.132812-6.753906 0-63.332032-34.429687-118.589844-85.566406-148.183594zm0 0" fill="#84abc1"/><path d="m343.625 382.148438c-41.65625 0-83.3125-26.921876-85.402344-80.683594-.082031-2.253906-.167968-4.507813-.167968-6.761719 0-63.320313 34.4375-118.582031 85.570312-148.175781-10.3125 29.59375-40.671875 84.855468-40.671875 148.175781 0 2.253906 0 4.507813.039063 6.761719.417968 53.761718 32.242187 80.683594 40.632812 80.683594zm0 0" fill="#4d87a1"/><path d="m161.410156 321.894531c-41.257812 23.878907-69.035156 68.460938-69.035156 119.558594 0 1.824219.035156 3.640625.105469 5.449219 3.371093 86.792968 134.492187 86.792968 137.863281 0 .070312-1.804688.105469-3.625.105469-5.449219 0-51.097656-27.777344-95.679687-69.039063-119.558594zm0 0" fill="#84abc1"/><path d="m161.410156 512c-33.609375 0-67.21875-21.722656-68.902344-65.097656-.066406-1.820313-.132812-3.636719-.132812-5.457032 0-51.085937 27.78125-95.675781 69.035156-119.554687-8.316406 23.878906-32.816406 68.46875-32.816406 119.554687 0 1.820313 0 3.636719.035156 5.457032.335938 43.375 26.011719 65.097656 32.78125 65.097656zm0 0" fill="#4d87a1"/></svg>