<svg height="512pt" viewBox="-39 0 512 512" width="512pt" xmlns="http://www.w3.org/2000/svg"><path d="m187.242188 351.304688c-.675782 0-1.351563-.085938-2.015626-.261719l-145.199218-38.597657c-3.4375-.917968-5.832032-4.03125-5.832032-7.589843v-156.859375c0-3.558594 2.394532-6.671875 5.832032-7.585938l145.199218-38.601562c2.355469-.625 4.867188-.121094 6.800782 1.363281 1.933594 1.488281 3.066406 3.789063 3.066406 6.226563v234.054687c0 2.4375-1.132812 4.738281-3.066406 6.226563-1.386719 1.066406-3.074219 1.625-4.785156 1.625zm-137.347657-52.484376 129.496094 34.421876v-213.632813l-129.496094 34.421875zm0 0" fill="#d3ddea"/><path d="m433.894531 133.511719v185.828125l-262.074219 45.734375v-277.292969zm0 0" fill="#ff7694"/><path d="m433.894531 268.382812v50.957032l-262.074219 45.734375v-70.523438zm0 0" fill="#e53737"/><path d="m349.710938 118.828125v215.195313l-93.707032 16.363281v-247.910157zm0 0" fill="#d3ddea"/><path d="m349.710938 276.785156v57.238282l-93.707032 16.363281v-64.242188zm0 0" fill="#84abc1"/><path d="m57.460938 74.378906v437.621094h-38.09375v-438.6875" fill="#84abc1"/><path d="m37.816406 74.378906v437.621094h-18.449218v-438.6875" fill="#4d87a1"/><path d="m78.769531 39.386719c0 21.75-17.632812 39.382812-39.382812 39.382812-21.753907 0-39.386719-17.632812-39.386719-39.382812 0-21.753907 17.632812-39.386719 39.386719-39.386719 21.75 0 39.382812 17.632812 39.382812 39.386719zm0 0" fill="#e53737"/><path d="m78.773438 39.386719c0 16.769531-10.488282 31.089843-25.257813 36.773437-14.773437-5.683594-25.25-20.003906-25.25-36.773437s10.476563-31.101563 25.25-36.785157c14.769531 5.683594 25.257813 20.015626 25.257813 36.785157zm0 0" fill="#ff7694"/></svg>